<svg width="21" height="15" viewBox="0 0 21 15" fill="none" xmlns="http://www.w3.org/2000/svg">
<path d="M17.9375 14L4.65625 1M8.90625 6.14936C8.57562 6.50616 8.375 6.97483 8.375 7.48813C8.375 8.60594 9.32639 9.51211 10.5 9.51211C11.0411 9.51211 11.535 9.31947 11.9102 9.00227M17.9719 9.51211C18.7034 8.44018 19 7.56598 19 7.56598C19 7.56598 17.0657 1.52 10.5 1.52C10.1314 1.52 9.77739 1.53906 9.4375 1.57503M15.2812 12.1362C14.0617 12.8977 12.4916 13.4363 10.5 13.4044C4.01603 13.3006 2 7.56598 2 7.56598C2 7.56598 2.93664 4.63833 5.71875 2.85754" stroke="#F16363" stroke-width="2" stroke-linecap="round"/>
</svg>
