<svg width="28" height="28" viewBox="0 0 28 28" fill="none" xmlns="http://www.w3.org/2000/svg">
<path d="M16.4012 4.04102C15.0625 4.04102 13.7786 4.57281 12.832 5.5194C11.8854 6.466 11.3536 7.74986 11.3536 9.08855V11.8988H8.65254C8.51692 11.8988 8.40698 12.0087 8.40698 12.1443V15.855C8.40698 15.9906 8.51692 16.1005 8.65254 16.1005H11.3536V23.7127C11.3536 23.8484 11.4636 23.9583 11.5992 23.9583H15.3098C15.4454 23.9583 15.5554 23.8484 15.5554 23.7127V16.1005H18.2804C18.3931 16.1005 18.4913 16.0238 18.5186 15.9145L19.4463 12.2039C19.485 12.0489 19.3678 11.8988 19.2081 11.8988H15.5554V9.08855C15.5554 8.86423 15.6445 8.64909 15.8031 8.49047C15.9617 8.33185 16.1769 8.24274 16.4012 8.24274H19.2387C19.3743 8.24274 19.4843 8.1328 19.4843 7.99719V4.28657C19.4843 4.15095 19.3743 4.04102 19.2387 4.04102H16.4012Z" fill="#3394C6"/>
</svg>
