<svg width="28" height="28" viewBox="0 0 28 28" fill="none" xmlns="http://www.w3.org/2000/svg">
<path d="M14.0001 10.4526C12.0412 10.4526 10.4532 12.0406 10.4532 13.9996C10.4532 15.9585 12.0412 17.5465 14.0001 17.5465C15.959 17.5465 17.547 15.9585 17.547 13.9996C17.547 12.0406 15.959 10.4526 14.0001 10.4526Z" fill="#3394C6"/>
<path fill-rule="evenodd" clip-rule="evenodd" d="M8.2918 4.26624C12.0549 3.84566 15.9453 3.84566 19.7084 4.26624C21.7803 4.4978 23.4514 6.13023 23.6945 8.20933C24.1445 12.0564 24.1445 15.9427 23.6945 19.7898C23.4514 21.8689 21.7803 23.5013 19.7084 23.7329C15.9453 24.1534 12.0549 24.1534 8.2918 23.7329C6.21997 23.5013 4.54889 21.8689 4.30572 19.7898C3.85578 15.9427 3.85578 12.0564 4.30572 8.20933C4.54889 6.13023 6.21997 4.4978 8.2918 4.26624ZM19.4569 7.45141C18.8542 7.45141 18.3655 7.94003 18.3655 8.54277C18.3655 9.14551 18.8542 9.63412 19.4569 9.63412C20.0596 9.63412 20.5483 9.14551 20.5483 8.54277C20.5483 7.94003 20.0596 7.45141 19.4569 7.45141ZM8.81616 13.9996C8.81616 11.1365 11.1371 8.81561 14.0001 8.81561C16.8631 8.81561 19.1841 11.1365 19.1841 13.9996C19.1841 16.8626 16.8631 19.1835 14.0001 19.1835C11.1371 19.1835 8.81616 16.8626 8.81616 13.9996Z" fill="#3394C6"/>
</svg>
