<svg width="395" height="89" viewBox="0 0 395 89" fill="none" xmlns="http://www.w3.org/2000/svg">
<mask id="mask0_201_2" style="mask-type:alpha" maskUnits="userSpaceOnUse" x="0" y="0" width="104" height="89">
<rect width="104" height="89" fill="#D9D9D9"/>
</mask>
<g mask="url(#mask0_201_2)">
<path d="M15.8646 30.052C15.8646 30.052 40.6458 15.6148 66.1146 37.6499C66.1146 37.6499 61.8438 66.3499 61.2604 68.3699C60.6667 70.4001 56.3958 70.5437 48.1562 69.0877C39.9167 67.6316 26.0208 59.3569 11 60.813C11 60.813 12.3542 48.488 23.6667 43.8226C23.6667 43.8226 23.0729 35.8555 15.8646 30.052Z" fill="url(#paint0_linear_201_2)"/>
<path d="M49.1875 61.1513C49.0417 63.1815 53.3542 64.2992 56.8438 65.1092C60.0625 65.868 61.2604 66.0731 61.2604 68.3596L63.3438 60.3003C63.3438 60.3003 55.3125 57.419 52.5729 57.6651C49.8437 57.9111 49.3333 59.1108 49.1875 61.1411V61.1513Z" fill="#7C6DF4"/>
<path d="M82.2604 66.0833L73.9791 112.409C73.7812 113.537 74.4792 114.624 75.5937 114.922C76.8542 115.26 78.1458 114.47 78.3854 113.199L87.4062 66.0833H82.25H82.2604Z" fill="#B3C1C4"/>
<path d="M86.875 68.6877C86.875 68.6877 54.9792 58.6392 52.4271 58.5469C49.1875 58.4238 49.1875 61.1513 49.1875 61.1513C49.1875 61.1513 57.1354 21.7362 58.3125 18.8344C59.4896 15.9326 61.2604 13.9024 65.6771 15.6455C70.0938 17.3887 96 24.9251 96 24.9251L86.875 68.6877Z" fill="url(#paint1_linear_201_2)"/>
<path d="M71.3156 29.4589C71.3156 29.4589 73.1143 27.5696 76.4179 28.3298C79.7214 29.0901 80.2145 31.5069 80.2145 31.5069C80.5237 32.6411 79.9791 33.7434 80.1041 33.9746C80.1041 33.9746 77.975 32.3836 75.2386 31.7792C72.5145 31.1776 70.6493 31.7228 70.6493 31.7228C70.6493 31.7228 70.63 30.2883 71.3127 29.4709L71.3156 29.4589Z" fill="white"/>
<path d="M71.7759 31.5264C71.5909 30.9523 71.5127 30.4155 71.6661 29.9319C71.6746 29.8959 71.686 29.8479 71.7003 29.7879C71.706 29.7639 71.7088 29.7519 71.7145 29.7279C71.8333 29.5527 71.8265 29.3107 71.6872 29.1394C71.438 29.3225 71.3156 29.4589 71.3156 29.4589C70.6329 30.2763 70.6522 31.7108 70.6522 31.7108C70.6522 31.7108 71.0663 31.5909 71.7881 31.5293L71.7759 31.5264Z" fill="#7C6DF4"/>
<path d="M80.0947 33.9598C79.9697 33.7285 80.5265 32.6291 80.2051 31.4921C80.2051 31.4921 80.1719 31.3072 80.0432 31.0372C80.0432 31.0372 80.031 31.0344 80.016 31.0436C79.8018 31.1335 79.6867 31.3474 79.7142 31.5563C79.7085 31.5803 79.7028 31.6043 79.7 31.6163C79.6857 31.6763 79.6743 31.7243 79.6658 31.7603C79.5826 32.2727 79.2707 32.7198 78.8312 33.1628C79.6154 33.5964 80.0854 33.945 80.0854 33.945L80.0947 33.9598Z" fill="#7C6DF4"/>
<path d="M80.2023 31.5041C80.7354 32.7784 81.0205 34.1222 81.1499 35.4176C81.4125 38.0471 80.8869 38.4197 80.3281 39.2023C79.7544 39.9941 63.2674 54.196 63.2674 54.196L62.787 46.1504L69.6122 40.7986L75.7421 36.4257C76.5905 35.7224 77.439 35.0192 78.2903 34.3039C79.1237 33.6098 79.9985 32.8493 80.1498 31.8337C80.1669 31.7617 80.2369 31.5753 80.193 31.4893L80.2023 31.5041Z" fill="white"/>
<path d="M77.068 42.2107L74.4811 37.3504L69.6216 40.8134L69.1025 41.2128C69.8161 42.9716 70.6556 45.0125 71.5138 47.083C73.4912 45.3614 75.4715 43.6277 77.068 42.2107Z" fill="#7C6DF4"/>
<path d="M71.3156 29.4589C70.2638 30.3685 69.403 31.4486 68.7036 32.5532C67.2839 34.7955 67.575 35.3561 67.7355 36.3042C67.8932 37.2643 76.2745 57.1893 76.2745 57.1893L80.3289 50.1874L76.6217 42.4117L73.0968 35.8169L71.7684 32.8029C71.334 31.817 70.8924 30.7536 71.2142 29.7772C71.2313 29.7052 71.2526 29.5076 71.3184 29.4469L71.3156 29.4589Z" fill="white"/>
<path d="M71.3156 29.4589C70.2638 30.3685 69.403 31.4486 68.7036 32.5532C67.2839 34.7955 67.575 35.3561 67.7355 36.3042C67.8932 37.2643 76.2745 57.1893 76.2745 57.1893L80.3289 50.1874L76.6217 42.4117L73.0968 35.8169L71.7684 32.8029C71.334 31.817 70.8924 30.7536 71.2142 29.7772C71.2313 29.7052 71.2526 29.5076 71.3184 29.4469L71.3156 29.4589Z" fill="white"/>
</g>
<path d="M282.631 51.1939C282.846 52.1164 283.336 52.7322 284.064 53.1677C285.623 54.102 287.824 53.8772 289.203 52.6878C289.335 52.5754 289.641 52.5168 289.782 52.5918C290.592 53.0156 291.376 53.4885 292.261 53.999C292.055 54.2706 291.894 54.5234 291.692 54.7412C290.309 56.2327 288.555 56.8415 286.562 56.9117C283.212 57.0288 280.411 55.275 279.362 52.3717C277.948 48.4544 279.8 44.2398 283.565 42.9895C288.894 41.2194 293.498 45.1834 292.915 50.7046C292.865 51.1658 292.617 51.2033 292.24 51.2009C289.295 51.1892 286.349 51.1963 283.404 51.1963C283.174 51.1963 282.945 51.1963 282.631 51.1963V51.1939ZM289.358 48.424C289.203 46.8623 287.775 45.7103 286.059 45.7173C284.244 45.7267 282.76 46.8833 282.633 48.424H289.356H289.358Z" fill="#FF5657"/>
<path d="M266.932 51.1939C267.222 52.3248 267.866 53.046 268.854 53.3949C270.542 53.9943 272.148 53.9053 273.558 52.6362C273.663 52.5402 273.928 52.4981 274.05 52.5637C274.871 53.0062 275.672 53.4838 276.616 54.0271C276.197 54.479 275.85 54.9098 275.445 55.2774C272.247 58.155 264.532 57.5884 263.328 51.1213C262.736 47.937 264.255 44.6707 267.018 43.336C270.062 41.8656 273.56 42.5142 275.6 44.961C276.99 46.6281 277.421 48.5832 277.218 50.7116C277.178 51.1307 276.967 51.2009 276.597 51.1986C273.633 51.1869 270.666 51.1916 267.702 51.1916C267.475 51.1916 267.245 51.1916 266.934 51.1916L266.932 51.1939ZM273.675 48.4357C273.467 46.7709 271.982 45.6494 270.175 45.7267C268.456 45.7992 266.997 47.0074 266.95 48.4357H273.675Z" fill="#FF5657"/>
<path d="M244.604 56.5137H240.893C240.878 56.2819 240.853 56.0782 240.853 55.8721C240.853 49.9811 240.857 44.09 240.841 38.2013C240.841 37.6791 240.965 37.4965 241.52 37.5012C244.875 37.5269 248.231 37.5246 251.584 37.5012C252.101 37.4988 252.267 37.651 252.241 38.1662C252.202 38.9435 252.209 39.7279 252.239 40.5053C252.256 40.9642 252.106 41.114 251.64 41.1093C249.514 41.0883 247.388 41.114 245.262 41.0906C244.763 41.0859 244.573 41.2077 244.592 41.7415C244.632 42.8326 244.627 43.9261 244.592 45.0172C244.578 45.4949 244.751 45.6096 245.196 45.6049C247.264 45.5862 249.331 45.6096 251.399 45.5885C251.857 45.5838 252.024 45.715 252.005 46.1832C251.975 47.0004 251.975 47.8222 252.005 48.6394C252.021 49.0843 251.862 49.206 251.434 49.2014C249.425 49.1826 247.416 49.192 245.407 49.1943C244.871 49.1943 244.604 49.4542 244.604 49.974C244.604 51.9244 244.604 53.8749 244.604 55.8253V56.516V56.5137Z" fill="#FF5657"/>
<path d="M258.329 44.8884C259.329 43.4156 260.64 42.7109 262.41 42.7062V46.4876C261.804 46.5813 261.195 46.607 260.629 46.7733C259.275 47.169 258.446 48.0985 258.39 49.5151C258.308 51.5966 258.343 53.6828 258.332 55.7691C258.327 56.5441 258.332 56.5464 257.58 56.5464C256.688 56.5464 255.796 56.5464 254.85 56.5464C254.833 56.3029 254.81 56.1156 254.81 55.9306C254.81 51.8191 254.817 47.7075 254.798 43.5959C254.798 43.0925 254.92 42.8982 255.447 42.9239C256.224 42.9637 257.006 42.9497 257.784 42.9286C258.184 42.9169 258.355 43.0551 258.336 43.4648C258.313 43.9378 258.332 44.4154 258.332 44.8884H258.329Z" fill="#FF5657"/>
<path fill-rule="evenodd" clip-rule="evenodd" d="M199.231 39.1449C199.241 40.3249 198.264 41.3084 197.084 41.313C195.93 41.3177 194.965 40.3601 194.949 39.1987C194.932 38.0046 195.885 37.0142 197.061 37.0001C198.239 36.9884 199.222 37.9601 199.231 39.1449ZM316.491 50.6366C317.462 51.2009 318.485 51.7957 319.504 52.388C318.279 54.9987 314.463 57.4315 309.965 56.8227C305.369 56.1999 301.908 52.5917 301.555 48.0423C301.166 43.0504 303.931 38.8311 308.422 37.5457C313.133 36.197 317.678 38.2996 319.527 41.6104C319.482 41.6414 319.436 41.6736 319.39 41.7058C319.284 41.7807 319.176 41.8564 319.061 41.9218C318.475 42.2654 317.884 42.6043 317.292 42.9432L317.292 42.9432L317.292 42.9434L317.291 42.9438L317.289 42.945C316.443 43.4323 316.441 43.43 315.839 42.7454L315.805 42.7062C314.224 40.9056 312.18 40.4795 309.946 40.9337C307.008 41.5331 305.268 43.7926 305.247 46.9278C305.233 49.3137 306.062 51.3227 308.263 52.4747C310.438 53.615 312.667 53.5822 314.767 52.2429C315.188 51.9739 315.544 51.6023 315.921 51.2083L315.921 51.2082L315.921 51.2081C316.102 51.019 316.288 50.8248 316.488 50.6343L316.491 50.6366ZM117.012 56.4856V55.8838C117.012 54.622 117.012 53.3601 117.012 52.0983C117.014 47.4713 117.015 42.844 117 38.2153C117 37.651 117.159 37.4918 117.721 37.4988C119.163 37.5191 120.607 37.5165 122.05 37.5139H122.05H122.05H122.05H122.05H122.05H122.05H122.05H122.05H122.05H122.05H122.05H122.05H122.05H122.05H122.05H122.05H122.05H122.05H122.05H122.05H122.05H122.05H122.05H122.05H122.05H122.05H122.05H122.05H122.05H122.05C122.772 37.5126 123.493 37.5113 124.214 37.5129C129.056 37.5246 132.533 40.25 133.533 44.9774C134.502 49.5643 132.278 54.3947 127.691 55.9868C126.768 56.3076 125.755 56.4832 124.776 56.5137C123.031 56.5678 121.285 56.5584 119.538 56.549H119.538L119.537 56.549C118.865 56.5454 118.194 56.5418 117.522 56.5418C117.425 56.5418 117.329 56.5281 117.216 56.5121L117.215 56.5121L117.215 56.5121C117.153 56.5033 117.086 56.4939 117.012 56.4856ZM120.802 52.9523C121.452 52.9168 122.099 52.9341 122.742 52.9514C123.919 52.983 125.085 53.0142 126.237 52.7205C127.494 52.3998 128.478 51.6482 129.185 50.5547C130 49.2903 130.248 47.8855 130.135 46.4104C129.887 43.1979 127.721 41.1585 124.504 41.1047C124.077 41.0979 123.649 41.1007 123.222 41.1036C122.616 41.1076 122.01 41.1116 121.404 41.0883C120.87 41.0672 120.756 41.2615 120.758 41.7626C120.773 44.2195 120.771 46.6775 120.77 49.1351V49.1352V49.1353V49.1354V49.1356V49.1357V49.1358V49.1359V49.136V49.1361V49.1362V49.1363V49.1364V49.1366V49.1367V49.1368V49.1369C120.77 50.1895 120.769 51.2421 120.77 52.2944C120.77 52.4171 120.778 52.5398 120.787 52.686L120.787 52.686L120.787 52.686C120.792 52.7658 120.798 52.8525 120.802 52.95V52.9523ZM348.016 44.4762C348.016 44.3213 348.017 44.1822 348.018 44.0537C348.02 43.7927 348.021 43.5756 348.013 43.3595C348.002 43.0691 348.105 42.9263 348.414 42.9286C348.734 42.932 349.054 42.9308 349.375 42.9297C349.951 42.9277 350.528 42.9256 351.104 42.9497C351.249 42.9567 351.46 43.1885 351.504 43.3548C351.552 43.5344 351.542 43.7292 351.532 43.9243C351.527 44.0064 351.523 44.0885 351.523 44.1696C351.523 45.087 351.523 46.0045 351.522 46.9219V46.9295C351.52 49.9081 351.519 52.8871 351.535 55.8674C351.537 56.4013 351.394 56.5816 350.849 56.5558C350.214 56.5248 349.579 56.5313 348.914 56.5381L348.913 56.5381C348.624 56.5411 348.328 56.5441 348.025 56.5441V55.0807C347.971 55.1102 347.928 55.1304 347.895 55.1463C347.842 55.1721 347.812 55.1863 347.793 55.2095C345.857 57.5088 341.097 57.7897 338.465 54.2987C335.749 50.6975 336.896 45.2186 340.788 43.2377C342.679 42.2757 345.768 42.1139 348.016 44.4762ZM348.011 49.7141C348.023 51.9525 346.466 53.5517 344.267 53.5634C342.075 53.5728 340.488 51.9689 340.488 49.7446C340.488 47.5506 342.047 45.9444 344.208 45.914C346.386 45.8812 347.997 47.4944 348.011 49.7141ZM178.512 55.2727C178.224 55.4258 177.943 55.5947 177.665 55.7624C177.067 56.1229 176.478 56.4775 175.84 56.6565C172.494 57.6001 169.237 55.8206 167.973 52.484C166.634 48.9438 168.083 44.8814 171.251 43.2541C173.546 42.0764 176.625 42.4369 178.231 44.2281C178.261 44.2608 178.297 44.2869 178.363 44.3344L178.363 44.3345C178.401 44.3619 178.449 44.3965 178.512 44.4435C178.512 44.3095 178.513 44.1874 178.515 44.0736V44.0731V44.0728V44.0728V44.0727V44.0726V44.0725V44.0724V44.0723V44.0723V44.0722V44.0721V44.0721V44.072V44.0719C178.518 43.8305 178.52 43.6261 178.507 43.4227C178.489 43.0855 178.596 42.9193 178.966 42.9263C179.823 42.9427 180.682 42.9403 181.539 42.9263C181.891 42.9216 182.022 43.0574 182.022 43.4086C182.015 47.6373 182.015 51.8682 182.022 56.0969C182.022 56.4177 181.916 56.5511 181.582 56.5464C180.706 56.5324 179.828 56.5324 178.95 56.5464C178.624 56.5511 178.486 56.4411 178.507 56.1086C178.521 55.8855 178.517 55.6624 178.514 55.4737V55.4736V55.4735V55.4734V55.4734V55.4733V55.4732V55.4731V55.4728V55.4725V55.4722V55.4719V55.4717C178.513 55.3997 178.512 55.3327 178.512 55.2727ZM174.733 53.5634C176.941 53.5658 178.503 51.9853 178.505 49.7469C178.505 47.5179 176.927 45.9116 174.738 45.914C172.588 45.9163 171.003 47.5202 170.987 49.7118C170.968 51.9362 172.546 53.5588 174.733 53.5634ZM325.51 44.2857C325.578 44.2383 325.629 44.2051 325.669 44.1791C325.727 44.1413 325.762 44.1189 325.791 44.09C327.458 42.3924 329.471 42.1841 331.569 42.9591C333.602 43.7083 334.552 45.4129 334.634 47.4804C334.716 49.5565 334.702 51.6361 334.687 53.716C334.682 54.5635 334.676 55.4111 334.676 56.2584C334.676 56.3055 334.663 56.3535 334.647 56.4096C334.642 56.4248 334.638 56.4406 334.633 56.4572C334.629 56.4737 334.624 56.4909 334.62 56.509H331.235C331.23 56.4237 331.225 56.3404 331.219 56.2585C331.209 56.1088 331.199 55.9635 331.199 55.8182C331.198 54.349 331.198 52.8807 331.199 51.4121V51.4118V51.4116V51.4113V51.4111V51.4108V51.4105V51.4103V51.41V51.4098V51.4095V51.4092V51.409C331.199 50.674 331.199 49.939 331.199 49.2037C331.199 49.1552 331.2 49.1067 331.2 49.058V49.0578C331.201 48.9113 331.202 48.7642 331.195 48.6183C331.106 46.8341 330.176 45.8648 328.54 45.8437C326.828 45.8226 325.648 46.8318 325.568 48.5551C325.505 49.9049 325.507 51.257 325.509 52.609C325.51 53.1496 325.511 53.6903 325.507 54.2308C325.506 54.4336 325.507 54.6364 325.509 54.8391C325.512 55.2613 325.515 55.6831 325.491 56.1039C325.482 56.2561 325.294 56.5207 325.182 56.523C324.392 56.5482 323.602 56.5458 322.784 56.5433C322.536 56.5425 322.285 56.5418 322.03 56.5418C322.025 56.4609 322.019 56.3852 322.014 56.313L322.014 56.3122L322.014 56.3117C322.001 56.1564 321.991 56.0172 321.991 55.8768C321.991 54.8049 321.991 53.7331 321.991 52.6613V52.6612V52.661V52.6609V52.6607V52.6606V52.6604V52.6603V52.6601V52.66V52.6598V52.6597V52.6595C321.992 47.8392 321.992 43.0198 321.979 38.1989C321.979 37.6744 322.103 37.4661 322.658 37.5012C323.395 37.548 324.14 37.5363 324.882 37.5035C325.362 37.4824 325.526 37.637 325.519 38.1287C325.501 39.435 325.504 40.7414 325.507 42.0477C325.508 42.556 325.51 43.0643 325.51 43.5725V44.2857ZM215.748 49.7446C215.75 53.7601 212.62 56.8906 208.578 56.9117C204.558 56.9328 201.409 53.8023 201.395 49.768C201.381 45.7149 204.535 42.554 208.583 42.5657C212.601 42.5774 215.745 45.7266 215.748 49.7422V49.7446ZM208.567 46.01C206.462 46.0053 204.902 47.5834 204.893 49.7282C204.884 51.8565 206.45 53.4698 208.543 53.4862C210.653 53.5026 212.266 51.8659 212.252 49.7235C212.238 47.5834 210.681 46.0123 208.567 46.01ZM142.847 56.9117C146.888 56.8696 150.017 53.7203 149.993 49.7165H149.996C149.972 45.6775 146.785 42.5399 142.737 42.568C138.726 42.5961 135.6 45.7758 135.631 49.7984C135.661 53.8257 138.834 56.9538 142.847 56.9117ZM139.127 49.7258C139.136 47.5928 140.709 46.0029 142.81 46.01H142.812C144.947 46.0146 146.511 47.6209 146.49 49.7867C146.469 51.9127 144.868 53.5096 142.779 53.4885C140.686 53.4674 139.117 51.8495 139.127 49.7258ZM380.124 42.9333H380.127C380.171 43.0469 380.207 43.1429 380.24 43.2277L380.24 43.228L380.24 43.2299C380.293 43.3685 380.334 43.4773 380.379 43.5842C380.786 44.5449 381.194 45.5055 381.601 46.4661C382.898 49.5231 384.195 52.5806 385.476 55.645C385.586 55.9119 385.582 56.2982 385.476 56.5675C384.971 57.86 384.029 58.6256 382.608 58.6935C382.238 58.7099 382.091 58.8317 382.102 59.2157C382.126 59.9579 382.123 60.7001 382.102 61.44C382.091 61.8357 382.217 62.009 382.634 61.9996C383.947 61.9669 385.186 61.6976 386.282 60.9296C387.68 59.9485 388.534 58.5624 389.11 57.003C390.395 53.5285 391.661 50.047 392.926 46.566L392.929 46.5591L392.953 46.4905C393.323 45.474 393.692 44.4576 394.062 43.4414C394.095 43.3514 394.11 43.2553 394.129 43.136C394.138 43.0752 394.149 43.0084 394.163 42.9333C393.888 42.9333 393.617 42.9325 393.349 42.9318C392.469 42.9293 391.62 42.9269 390.773 42.952C390.632 42.9567 390.438 43.1932 390.377 43.3618C390.12 44.0777 389.882 44.7992 389.644 45.5209L389.643 45.5255C389.576 45.7276 389.51 45.9297 389.443 46.1317C388.808 48.0517 388.174 49.9693 387.495 52.0204C387.437 51.8882 387.384 51.7708 387.336 51.6628L387.336 51.6617L387.335 51.66C387.244 51.4576 387.168 51.2879 387.101 51.1143C386.821 50.3918 386.542 49.6692 386.263 48.9465L386.258 48.9335C385.549 47.0984 384.839 45.2634 384.118 43.432C384.041 43.2354 383.814 42.9614 383.648 42.9544C382.809 42.923 381.969 42.9267 381.071 42.9306C380.764 42.9319 380.45 42.9333 380.127 42.9333L380.126 42.931L380.124 42.9333ZM225.334 42.5844C223.983 42.6711 222.803 43.1604 221.906 44.2445V44.2469C221.857 44.2211 221.81 44.1953 221.763 44.1696C221.763 44.1023 221.761 44.035 221.759 43.9677L221.759 43.9671C221.755 43.8241 221.751 43.6814 221.765 43.5397C221.807 43.0972 221.66 42.9029 221.178 42.9239C220.36 42.9567 219.541 42.9427 218.721 42.9286C218.37 42.9216 218.227 43.0551 218.239 43.4086C218.25 43.7291 218.247 44.0495 218.244 44.3699C218.243 44.5178 218.241 44.6656 218.241 44.8135C218.241 45.7282 218.242 46.6427 218.243 47.5572L218.243 47.5926V47.5929V47.5931V47.5933V47.5935V47.5937V47.594V47.5942V47.5944C218.244 50.3732 218.246 53.1512 218.232 55.9306C218.23 56.4177 218.37 56.5792 218.86 56.5535C219.35 56.5272 219.841 56.5331 220.332 56.539L220.333 56.539C220.543 56.5416 220.754 56.5441 220.965 56.5441C221.756 56.5441 221.756 56.5441 221.761 55.7688L221.761 55.755C221.764 55.0752 221.764 54.3949 221.763 53.7146C221.763 51.9956 221.762 50.2759 221.819 48.5598C221.875 46.8529 223.074 45.8273 224.783 45.8437C226.425 45.8601 227.357 46.8295 227.441 48.609C227.449 48.771 227.448 48.9346 227.448 49.0971L227.448 49.1943V55.8065C227.449 55.9482 227.457 56.0898 227.465 56.2336L227.465 56.2339C227.47 56.3207 227.475 56.4083 227.478 56.4973H230.892C230.892 55.5408 230.907 54.5873 230.923 53.6368V53.6366C230.957 51.4831 230.991 49.3444 230.848 47.2181C230.644 44.1649 228.349 42.3878 225.334 42.5844ZM161.696 56.5371V55.851V49.1779L161.696 49.0726C161.696 48.9321 161.697 48.7916 161.691 48.6511C161.623 46.8693 160.698 45.8789 159.069 45.8437C157.352 45.8063 156.158 46.8061 156.074 48.5223C156.008 49.8372 156.008 51.1555 156.008 52.474C156.008 53.0292 156.009 53.5844 156.004 54.1394C155.999 54.8021 155.997 55.467 156.004 56.1297C156.008 56.4223 155.896 56.5511 155.592 56.5488C154.695 56.5371 153.796 56.5301 152.899 56.5511C152.492 56.5605 152.475 56.3357 152.477 56.0313C152.482 54.6099 152.482 53.1884 152.481 51.767C152.48 51.1982 152.48 50.6294 152.48 50.0607C152.48 49.4906 152.481 48.9206 152.481 48.3505C152.484 46.7547 152.486 45.1589 152.47 43.5632C152.466 43.0879 152.592 42.8982 153.091 42.9216C153.85 42.9567 154.613 42.9567 155.374 42.9216C155.859 42.9005 156.062 43.0644 156.008 43.5538C155.992 43.6938 155.996 43.836 156 43.9921V43.9921V43.9921V43.9922V43.9922V43.9923V43.9923V43.9924C156.002 44.0659 156.004 44.1425 156.004 44.2235C156.05 44.2099 156.087 44.2012 156.118 44.1941C156.173 44.1817 156.206 44.1741 156.224 44.1532C157.722 42.54 159.588 42.273 161.597 42.7882C163.648 43.3126 165.072 45.1717 165.14 47.5038C165.206 49.7642 165.191 52.026 165.176 54.2882L165.176 54.2924L165.176 54.2966L165.176 54.3008C165.172 54.9026 165.168 55.5044 165.166 56.1063C165.166 56.2514 164.969 56.516 164.857 56.5183C164.069 56.5435 163.28 56.5411 162.458 56.5386H162.458H162.458H162.458H162.458H162.458H162.458H162.457H162.457H162.457H162.457H162.456H162.456H162.456H162.456C162.206 56.5378 161.953 56.5371 161.696 56.5371ZM370.567 42.9278C370.37 42.9294 370.168 42.931 369.96 42.931C369.96 43.2247 369.961 43.5117 369.963 43.7939C369.967 44.4836 369.97 45.1449 369.95 45.8063C369.939 46.2301 370.102 46.3448 370.496 46.3284C370.912 46.3104 371.329 46.3141 371.76 46.318C371.945 46.3197 372.132 46.3214 372.322 46.3214V47.1245C372.324 47.6831 372.321 48.2419 372.318 48.8007C372.312 50.0948 372.306 51.3889 372.35 52.6807C372.406 54.294 372.95 55.6754 374.631 56.2819C375.93 56.7501 377.274 56.722 378.618 56.5441C378.724 56.5301 378.888 56.3568 378.888 56.2538C378.904 55.5459 378.902 54.838 378.9 54.0949C378.9 53.8622 378.899 53.6261 378.899 53.3855C378.711 53.3855 378.528 53.3884 378.351 53.3913C377.979 53.3973 377.627 53.403 377.277 53.3808C376.237 53.3153 375.834 52.9008 375.823 51.8682C375.815 51.0767 375.816 50.2852 375.817 49.4938C375.818 48.6088 375.82 47.7238 375.809 46.8388C375.804 46.4104 375.975 46.305 376.361 46.3167C376.694 46.3258 377.027 46.3233 377.361 46.3207C377.71 46.318 378.059 46.3153 378.408 46.3261C378.792 46.3378 378.918 46.1879 378.909 45.8109C378.888 45.0312 378.885 44.2515 378.909 43.4718C378.92 43.0691 378.792 42.9076 378.377 42.924C378.094 42.9346 377.81 42.9307 377.526 42.9269C377.185 42.9222 376.845 42.9176 376.506 42.938C375.989 42.9684 375.771 42.828 375.804 42.2637C375.84 41.6221 375.83 40.9777 375.821 40.3338V40.3336V40.3333V40.333V40.3328V40.3325V40.3323C375.818 40.1378 375.815 39.9433 375.813 39.749C375.813 39.6257 375.797 39.5025 375.78 39.3671V39.367V39.3669V39.3668V39.3667L375.779 39.3636C375.771 39.2993 375.762 39.2323 375.755 39.1613C375.46 39.2495 375.171 39.3346 374.887 39.4184C374.121 39.6439 373.387 39.8601 372.662 40.1025C372.509 40.154 372.35 40.4303 372.339 40.613C372.296 41.2147 372.303 41.8211 372.329 42.4252C372.346 42.8092 372.21 42.9497 371.828 42.9357C371.415 42.9211 371.003 42.9244 370.567 42.9278ZM189.875 46.3214C189.868 46.3928 189.861 46.4553 189.854 46.5118C189.841 46.6237 189.83 46.7119 189.83 46.799C189.83 47.3223 189.829 47.8458 189.828 48.3693V48.3696V48.3699V48.3701V48.3704V48.3706V48.3725C189.826 49.5254 189.823 50.6786 189.833 51.8308C189.842 52.8868 190.257 53.3153 191.315 53.3832C191.704 53.4089 192.095 53.4019 192.483 53.3878C192.767 53.3785 192.923 53.4511 192.921 53.7718C192.918 54.0585 192.919 54.3454 192.919 54.6324C192.921 55.1449 192.923 55.6577 192.9 56.1695C192.893 56.3076 192.664 56.5488 192.535 56.5488C192.295 56.5515 192.054 56.5582 191.813 56.5649H191.813H191.813H191.813H191.813H191.813C190.999 56.5876 190.182 56.6104 189.393 56.4785C187.4 56.1461 186.41 54.8231 186.353 52.5777C186.323 51.3293 186.327 50.0797 186.33 48.8298C186.332 48.2653 186.334 47.7008 186.332 47.1362V46.3214C186.146 46.3214 185.962 46.3199 185.781 46.3185C185.349 46.3152 184.93 46.3119 184.513 46.3284C184.12 46.3448 183.949 46.2254 183.963 45.8016C183.989 45.0031 183.982 44.2024 183.965 43.4039C183.958 43.048 184.096 42.9146 184.447 42.9286C184.645 42.9373 184.844 42.934 185.042 42.9306C185.273 42.9267 185.503 42.9229 185.733 42.938C186.178 42.9684 186.37 42.835 186.339 42.355C186.302 41.772 186.309 41.1843 186.344 40.6012C186.356 40.4303 186.494 40.1634 186.632 40.1166C187.391 39.866 188.157 39.6404 188.976 39.3995C189.251 39.3184 189.532 39.2356 189.821 39.1496V40.9408C189.821 41.0955 189.823 41.25 189.824 41.4044C189.828 41.7571 189.831 42.1093 189.816 42.4627C189.8 42.8233 189.945 42.945 190.292 42.9357C190.632 42.9288 190.973 42.9308 191.313 42.9328C191.675 42.935 192.037 42.9371 192.399 42.9286C192.774 42.9193 192.928 43.0574 192.919 43.4391C192.902 44.2375 192.9 45.0383 192.919 45.8367C192.928 46.2371 192.741 46.3331 192.385 46.3261C191.79 46.316 191.196 46.3179 190.596 46.3198C190.354 46.3206 190.112 46.3214 189.868 46.3214H189.875ZM358.156 44.8513C359.165 43.4018 360.482 42.7085 362.238 42.6992V46.5064C362.07 46.5258 361.903 46.5402 361.736 46.5545C361.36 46.5866 360.987 46.6186 360.629 46.7077C359.112 47.0847 358.227 48.1454 358.185 49.7329C358.131 51.7605 358.135 53.7906 358.17 55.8183C358.18 56.427 357.995 56.5956 357.412 56.5558C356.693 56.5066 355.967 56.516 355.248 56.5558C354.752 56.5816 354.623 56.4036 354.626 55.926C354.638 52.9844 354.637 50.0428 354.636 47.1022V47.1019V47.1017V47.1014V47.1011C354.635 46.2198 354.635 45.3386 354.635 44.4576C354.635 43.443 355.148 42.9357 356.176 42.9357C356.316 42.9357 356.457 42.9376 356.597 42.9395C356.925 42.9439 357.253 42.9483 357.58 42.9286C358.004 42.9052 358.192 43.048 358.163 43.4929C358.144 43.8107 358.148 44.1309 358.153 44.4509V44.4514C358.154 44.5848 358.156 44.7181 358.156 44.8513ZM195.326 56.5441V55.8721C195.326 54.9127 195.326 53.9533 195.327 52.994V52.9939V52.9938V52.9937C195.329 49.8769 195.33 46.7603 195.314 43.6451C195.312 43.0855 195.459 42.8841 196.031 42.9216C196.749 42.9684 197.475 42.9614 198.194 42.9216C198.716 42.8935 198.859 43.0808 198.857 43.5889C198.843 46.4269 198.844 49.2649 198.846 52.103L198.846 52.1393C198.847 53.073 198.847 54.0066 198.847 54.9402C198.847 56.0095 198.306 56.5441 197.225 56.5441H195.326ZM364.361 55.83V56.5347L364.364 56.5324C364.602 56.5324 364.837 56.5329 365.07 56.5334H365.071C365.945 56.5353 366.786 56.5372 367.628 56.5113C367.719 56.509 367.871 56.1976 367.871 56.029C367.879 53.6719 367.88 51.3141 367.881 48.9563C367.882 47.1217 367.883 45.2872 367.887 43.4531C367.887 43.0363 367.726 42.9122 367.33 42.9239C366.59 42.9474 365.846 42.9684 365.108 42.9193C364.518 42.8795 364.343 43.0598 364.347 43.6638C364.368 46.7031 364.366 49.7424 364.363 52.7817V52.7876C364.362 53.8017 364.361 54.8158 364.361 55.83ZM366.11 41.313C367.265 41.313 368.248 40.3554 368.264 39.2104H368.267C368.283 38.021 367.34 37.0306 366.159 37.0025C364.989 36.9744 363.996 37.9461 363.982 39.1355C363.968 40.325 364.93 41.313 366.11 41.313Z" fill="url(#paint2_linear_201_2)"/>
<defs>
<linearGradient id="paint0_linear_201_2" x1="-2.54167" y1="60.1161" x2="51.6247" y2="59.5726" gradientUnits="userSpaceOnUse">
<stop stop-color="#8F68F7"/>
<stop offset="0.445043" stop-color="#7070F2"/>
<stop offset="1" stop-color="#58C4F2"/>
</linearGradient>
<linearGradient id="paint1_linear_201_2" x1="72.6322" y1="11.429" x2="72.3662" y2="70.9941" gradientUnits="userSpaceOnUse">
<stop stop-color="#8F68F7"/>
<stop offset="0.49" stop-color="#7070F2"/>
<stop offset="1" stop-color="#58C4F2"/>
</linearGradient>
<linearGradient id="paint2_linear_201_2" x1="255.582" y1="37" x2="255.582" y2="62" gradientUnits="userSpaceOnUse">
<stop stop-color="#065EB5"/>
<stop offset="1" stop-color="#065EB5" stop-opacity="0.6"/>
</linearGradient>
</defs>
</svg>
