<svg width="28" height="28" viewBox="0 0 28 28" fill="none" xmlns="http://www.w3.org/2000/svg">
<path fill-rule="evenodd" clip-rule="evenodd" d="M21.0754 22.5013L21.0762 22.4995L21.0952 22.452L24.3679 5.95169V5.89809C24.3679 5.48698 24.216 5.12807 23.8855 4.91279C23.5961 4.72436 23.2635 4.71094 23.0303 4.72864C22.7837 4.74736 22.5511 4.80893 22.39 4.86018C22.3072 4.88655 22.2379 4.91195 22.1883 4.93117C22.1634 4.94081 22.1432 4.949 22.1286 4.95509L22.1142 4.96116L3.86685 12.1193L3.86183 12.1211C3.85198 12.1247 3.83894 12.1296 3.8232 12.1357C3.79182 12.1479 3.74911 12.1654 3.69893 12.1881C3.6004 12.2328 3.46426 12.3017 3.32621 12.3962C3.09172 12.5568 2.64523 12.9369 2.72063 13.5396C2.78308 14.0388 3.12718 14.3559 3.35917 14.52C3.48353 14.608 3.6025 14.6714 3.68962 14.7129C3.73377 14.7339 3.77126 14.75 3.79919 14.7614C3.81319 14.7671 3.8249 14.7717 3.83395 14.7751L3.84555 14.7794L3.85296 14.7822L7.04545 15.857C7.03467 16.0573 7.05454 16.2615 7.10766 16.463L8.70681 22.5292C8.89642 23.2485 9.54711 23.7495 10.2909 23.7489C10.9577 23.7485 11.549 23.3451 11.8002 22.7433L14.2969 20.0738L18.5848 23.3612L18.6458 23.3878C19.0354 23.5578 19.3994 23.6117 19.7321 23.5662C20.0645 23.5208 20.3285 23.3815 20.5269 23.2228C20.7221 23.0666 20.8559 22.8903 20.94 22.7576C20.9827 22.6902 21.0146 22.631 21.0367 22.5864C21.0478 22.564 21.0566 22.545 21.0631 22.5302L21.0713 22.5112L21.0743 22.5042L21.0754 22.5013ZM8.69056 16.0457C8.65422 15.9078 8.71128 15.7623 8.83164 15.6858L19.6601 8.80929C19.6601 8.80929 20.297 8.42263 20.2742 8.80929C20.2742 8.80929 20.3879 8.87758 20.0466 9.19595C19.7229 9.49834 12.3289 16.637 11.5807 17.3593C11.5375 17.401 11.5118 17.4489 11.4965 17.5069L10.2897 22.1119L8.69056 16.0457Z" fill="#3394C6"/>
</svg>
