<svg width="28" height="28" viewBox="0 0 28 28" fill="none" xmlns="http://www.w3.org/2000/svg">
<path d="M24.706 7.69951C24.7692 7.61136 24.6758 7.49755 24.5747 7.53676C23.8558 7.81541 23.1044 8.00342 22.338 8.09607C23.1914 7.58627 23.8499 6.81023 24.215 5.89146C24.2522 5.79786 24.15 5.71428 24.0618 5.76297C23.2687 6.20097 22.4134 6.51637 21.5248 6.69801C21.4876 6.70562 21.4493 6.69295 21.4232 6.6654C20.7564 5.96183 19.8787 5.49338 18.9219 5.3315C17.9449 5.16622 16.9408 5.32987 16.0668 5.79679C15.1929 6.2637 14.4987 7.00748 14.0931 7.91145C13.7074 8.77096 13.6033 9.72908 13.7935 10.6492C13.8083 10.7206 13.7524 10.788 13.6796 10.7835C11.9509 10.6761 10.2618 10.2163 8.71641 9.43174C7.17496 8.64916 5.80996 7.56046 4.70456 6.23279C4.6555 6.17387 4.56252 6.18149 4.52677 6.24932C4.18281 6.90203 4.00272 7.62952 4.00321 8.36891C4.00181 9.1049 4.18243 9.82982 4.52897 10.4791C4.87552 11.1284 5.37725 11.682 5.98948 12.0904C5.3402 12.0728 4.70358 11.9123 4.12462 11.6212C4.05001 11.5837 3.96051 11.6371 3.96439 11.7206C4.00954 12.691 4.36581 13.6653 4.9825 14.4128C5.63875 15.2083 6.54962 15.7526 7.56103 15.9538C7.1717 16.0723 6.76748 16.1348 6.36054 16.1394C6.13906 16.1368 5.91801 16.1204 5.69867 16.0905C5.61734 16.0793 5.55094 16.1566 5.57941 16.2336C5.88108 17.0494 6.41401 17.7612 7.11475 18.2808C7.86392 18.8363 8.76761 19.1445 9.7001 19.1624C8.12549 20.4014 6.18143 21.0776 4.17782 21.0832C3.97195 21.0839 3.76616 21.0772 3.56086 21.0632C3.44517 21.0554 3.39196 21.2095 3.49168 21.2687C5.44387 22.4272 7.67518 23.0395 9.95111 23.0368C11.6315 23.0542 13.2985 22.7367 14.8547 22.1026C16.411 21.4686 17.8253 20.5309 19.0151 19.3441C20.2048 18.1574 21.1462 16.7455 21.7842 15.1909C22.4222 13.6363 22.7441 11.9701 22.7309 10.2897V9.76604C22.7309 9.73158 22.7472 9.69918 22.7747 9.67841C23.515 9.11948 24.1659 8.45219 24.706 7.69951Z" fill="#3394C6"/>
</svg>
