<svg width="28" height="28" viewBox="0 0 28 28" fill="none" xmlns="http://www.w3.org/2000/svg">
<path fill-rule="evenodd" clip-rule="evenodd" d="M19.1037 3.77083C15.6701 3.00331 12.1094 3.00331 8.67578 3.77083L8.30578 3.85353C6.33611 4.29381 4.78152 5.80454 4.28507 7.76081C3.41474 11.1904 3.41474 14.783 4.28507 18.2126C4.7593 20.0813 6.19904 21.5435 8.04381 22.0544L8.55092 25.0838C8.58376 25.2799 8.72074 25.4427 8.90842 25.5086C9.09609 25.5744 9.30474 25.5329 9.45297 25.4003L12.4332 22.7338C14.6644 22.87 16.91 22.693 19.1037 22.2026L19.4737 22.1199C21.4434 21.6796 22.998 20.1689 23.4944 18.2126C24.3648 14.783 24.3648 11.1904 23.4944 7.76081C22.998 5.80454 21.4434 4.29381 19.4737 3.85353L19.1037 3.77083ZM9.59629 7.67173C9.39357 7.64211 9.18681 7.6828 9.01044 7.78704H8.9954C8.58592 8.02706 8.21704 8.33044 7.90247 8.68587C7.64106 8.98811 7.49925 9.29393 7.462 9.58829C7.4398 9.76376 7.45484 9.93923 7.50712 10.1068L7.52575 10.1183C7.82011 10.9835 8.20471 11.8157 8.67454 12.5992C9.27975 13.7 10.0245 14.718 10.8905 15.628L10.9163 15.6653L10.9571 15.6954L10.9829 15.7254L11.0129 15.7512C11.9263 16.6197 12.9468 17.368 14.0496 17.9779C15.3102 18.664 16.0751 18.9885 16.5342 19.1231V19.1303C16.6688 19.1711 16.7913 19.1897 16.9145 19.1897C17.3057 19.1611 17.6761 19.0022 17.9666 18.7385C18.3204 18.4239 18.6204 18.0535 18.8547 17.642V17.6348C19.0745 17.2209 19 16.8291 18.6828 16.5641C18.0474 16.0087 17.3603 15.5154 16.6308 15.0909C16.1424 14.8259 15.6461 14.9863 15.4448 15.2549L15.0158 15.7956C14.7959 16.0642 14.3963 16.027 14.3963 16.027L14.3848 16.0341C11.4047 15.2728 10.6097 12.2554 10.6097 12.2554C10.6097 12.2554 10.5725 11.845 10.8482 11.6359L11.3854 11.2033C11.6425 10.9942 11.8215 10.4986 11.5458 10.0094C11.1242 9.279 10.632 8.59173 10.0761 7.95749C9.95463 7.80797 9.78415 7.70624 9.59486 7.6703L9.59629 7.67173ZM14.6324 6.36012C14.331 6.36012 14.0867 6.60443 14.0867 6.9058C14.0867 7.20717 14.331 7.45148 14.6324 7.45148C16.0124 7.45148 17.1591 7.90256 18.065 8.7663C18.5313 9.23928 18.8943 9.79915 19.1326 10.4118C19.3719 11.0268 19.4807 11.6826 19.4527 12.3394C19.4399 12.6405 19.6737 12.895 19.9747 12.9078C20.2758 12.9206 20.5303 12.6869 20.5431 12.3858C20.5775 11.5777 20.4435 10.7714 20.1497 10.0162C19.856 9.26093 19.4088 8.57271 18.8357 7.99331L18.8248 7.98282C17.7007 6.90781 16.2759 6.36012 14.6324 6.36012ZM14.5952 8.15467C14.2939 8.15467 14.0496 8.39898 14.0496 8.70035C14.0496 9.00172 14.2939 9.24603 14.5952 9.24603H14.6131C15.6089 9.3162 16.3335 9.64813 16.8415 10.193C17.3615 10.7541 17.6309 11.4511 17.6109 12.3134C17.6039 12.6147 17.8425 12.8646 18.1438 12.8716C18.4451 12.8786 18.695 12.64 18.702 12.3387C18.7282 11.2064 18.3641 10.2301 17.6413 9.45047L17.6403 9.44944C16.9019 8.65702 15.8888 8.23782 14.6684 8.1559L14.6501 8.15467H14.5952ZM14.5746 9.98199C14.2736 9.96615 14.0168 10.1973 14.001 10.4982C13.9852 10.7992 14.2163 11.056 14.5172 11.0718C14.9741 11.0959 15.2654 11.2329 15.4485 11.4178C15.6324 11.6036 15.77 11.9009 15.7951 12.3672C15.8113 12.6681 16.0684 12.899 16.3693 12.8828C16.6702 12.8666 16.9011 12.6095 16.8849 12.3086C16.8497 11.6537 16.6447 11.0748 16.224 10.6499C15.8024 10.2242 15.2267 10.0163 14.5746 9.98199Z" fill="#3394C6"/>
</svg>
